<svg width="277" height="265" viewBox="0 0 277 265" fill="none" xmlns="http://www.w3.org/2000/svg">
<ellipse cx="149" cy="137.74" rx="126" ry="127" fill="#736464" fill-opacity="0.2"/>
<g filter="url(#filter0_d_6_20)">
<path fill-rule="evenodd" clip-rule="evenodd" d="M89 71.2399L85 67.2399L83 64.7399L82 63.2399L81 61.7399V58.7399V57.2399V54.2399V52.7399L82 50.2399L83 46.7399L84 43.7399L85 42.7399L86.5 40.7399L88 38.7399L90 37.2399L92.5 35.7399L95 34.7399L97.5 33.7399H100.5H104.5H108.5L110.5 34.7399L113.5 36.2399L116 37.2399L117.5 38.7399L119.5 40.7399L121.5 43.7399L123.5 46.7399L124 50.2399L125 52.7399V55.2399V58.7399L123.5 61.7399V63.2399H169L189 83.2399V119.24L197.5 128.74L189 134.74L156 157.24L147.5 158.24L138 152.133L112.5 135.74L104 128.74L112.149 119.24L111.235 76.2806L110.5 76.7399L106 77.7399H100.5L97 76.7399L96 75.2399L89 71.2399Z" fill="#FFFEFE"/>
</g>
<path d="M146 158.74L105 129.74V188.74L154 212.74L196 188.74V129.74L154 158.74H146Z" fill="#FF8D00" stroke="#FF8D00"/>
<path d="M213 111.24L240 90.7399L222 115.74L243 122.24L247 82.2399L200.5 107.74L213 111.24Z" fill="#8C673A"/>
<path d="M225 119.24H218.5V127.24H222L225 119.24Z" fill="#8C673A"/>
<path d="M69 194.24H75.5L82.5 204.74L89.5 210.74L97.5 218.24L110.5 222.24H117.5L120 227.24L117.5 231.24H110.5L97.5 227.24L82.5 218.24L72 207.74L66.5 197.74L69 194.24Z" fill="#8C673A"/>
<path d="M252 134.24L254.5 96.2399H249.5V111.24L247 130.74H237L240 134.24H247H252Z" fill="#8C673A"/>
<path d="M43 98.7399V97.7399V93.7399V89.7399V81.7399V75.7399V69.7399H44V68.7399H45H46V67.7399H47V66.7399H48H51H54.5H57H61H67.5H75H82.5H87.5H93V67.7399H94V68.7399H95V69.7399H96L97 70.7399V73.7399V78.2399V81.4274V87.2399V92.2399V96.7399V98.7399H96V99.7399H95V100.74H94H93V101.74H91.5H88H86V103.74V105.74V107.74H85V106.74H84V105.74H83H82V104.74H81H80V103.74H79H78V102.74H77V101.74H73.5H66.5H62H58H54.5H50H47H46V100.74H45V99.7399H44V98.7399H43Z" fill="#BD7318"/>
<circle cx="56" cy="83.7399" r="5" fill="white"/>
<circle cx="70" cy="83.7399" r="5" fill="white"/>
<circle cx="84" cy="83.7399" r="5" fill="white"/>
<ellipse cx="268" cy="201.24" rx="9" ry="9.5" fill="#297BC8"/>
<ellipse cx="150" cy="24.2399" rx="9" ry="9.5" fill="#FF8D00"/>
<ellipse cx="31" cy="150.24" rx="6" ry="6.5" fill="#0FFFFF"/>
<ellipse cx="6" cy="105.24" rx="6" ry="6.5" fill="#297BC8"/>
<ellipse cx="55" cy="40.2399" rx="6" ry="6.5" fill="#0FFFFF"/>
<ellipse cx="213" cy="21.2399" rx="6" ry="6.5" fill="#0FFFFF"/>
<ellipse cx="12" cy="186.24" rx="9" ry="9.5" fill="#297BC8"/>
<line x1="244.5" y1="46.7399" x2="244.5" y2="27.7399" stroke="white"/>
<line x1="238" y1="36.2399" x2="252" y2="36.2399" stroke="white"/>
<line x1="199.336" y1="0.369974" x2="210.336" y2="10.37" stroke="white"/>
<line x1="203.571" y1="10.4827" x2="209.571" y2="0.482697" stroke="white"/>
<line x1="43.3536" y1="115.386" x2="51.3536" y2="123.386" stroke="white"/>
<line x1="51.3536" y1="116.093" x2="43.3536" y2="124.093" stroke="white"/>
<path d="M108.378 62.9653C109.706 61.8644 109.889 59.8946 108.788 58.566L103.979 62.5539C105.081 63.8825 107.051 64.0663 108.378 62.9653ZM111.807 50.6248C110.434 50.4467 108.102 50.3998 104.913 46.5549C102.491 43.6346 98.5045 42.995 95.2679 44.7113L94.6183 43.928C94.0675 43.2639 93.0827 43.1717 92.4189 43.7222C91.7552 44.2726 91.6636 45.2576 92.2144 45.9217L92.864 46.705C90.5787 49.5683 90.47 53.6042 92.8919 56.5245C96.0807 60.3694 95.6954 62.67 95.6164 64.0524C95.592 64.4819 95.7323 64.8546 95.9695 65.1368C96.4849 65.7497 97.4548 65.9349 98.1734 65.3389L112.598 53.3756C113.317 52.7796 113.315 51.7918 112.807 51.1723C112.574 50.887 112.233 50.6798 111.807 50.6248Z" fill="#FF8D00"/>
<rect x="115" y="75.7399" width="49" height="3" rx="1.5" fill="#D9D9D9"/>
<rect x="117" y="83.7399" width="28" height="3" rx="1.5" fill="#D9D9D9"/>
<rect x="124" y="107.74" width="35" height="4" rx="2" fill="#D9D9D9"/>
<rect x="124" y="116.74" width="19" height="3" rx="1.5" fill="#D9D9D9"/>
<rect x="124" y="101.74" width="21" height="3" rx="1.5" fill="#D9D9D9"/>
<path d="M185.472 228.734C185.66 228.579 185.946 228.716 185.95 228.955L186.114 238.939C186.135 240.233 185.103 241.3 183.809 241.321L163.5 241.656C162.206 241.677 161.139 240.645 161.117 239.351L160.953 229.372C160.949 229.128 161.225 228.987 161.423 229.135C162.531 229.966 163.998 231.021 169.038 234.557C170.08 235.292 171.844 236.845 173.577 236.807C175.32 236.793 177.066 235.147 178.045 234.409C182.965 230.709 184.393 229.601 185.472 228.734ZM173.551 235.24C174.684 235.24 176.291 233.768 177.102 233.159C183.503 228.351 183.989 227.933 185.464 226.737C185.743 226.512 185.904 226.168 185.898 225.806L185.883 224.879C185.861 223.585 184.794 222.553 183.5 222.574L163.191 222.908C161.897 222.93 160.865 223.997 160.886 225.29L160.901 226.218C160.907 226.579 161.079 226.914 161.366 227.133C162.879 228.276 163.379 228.683 169.935 233.277C170.765 233.859 172.419 235.278 173.551 235.24Z" fill="#0FFFFF"/>
<path d="M119.724 181.74V175.194H121.484V176.337H121.553C121.672 175.93 121.872 175.623 122.153 175.416C122.435 175.206 122.759 175.101 123.125 175.101C123.216 175.101 123.314 175.106 123.419 175.118C123.524 175.129 123.616 175.145 123.696 175.165V176.775C123.611 176.75 123.493 176.727 123.342 176.707C123.192 176.687 123.054 176.677 122.929 176.677C122.662 176.677 122.423 176.736 122.213 176.852C122.006 176.966 121.841 177.125 121.719 177.329C121.599 177.534 121.54 177.77 121.54 178.037V181.74H119.724ZM127.287 181.868C126.625 181.868 126.053 181.727 125.57 181.446C125.09 181.162 124.719 180.767 124.458 180.261C124.196 179.753 124.066 179.163 124.066 178.493C124.066 177.817 124.196 177.226 124.458 176.72C124.719 176.212 125.09 175.817 125.57 175.535C126.053 175.251 126.625 175.109 127.287 175.109C127.949 175.109 128.52 175.251 129 175.535C129.483 175.817 129.855 176.212 130.117 176.72C130.378 177.226 130.509 177.817 130.509 178.493C130.509 179.163 130.378 179.753 130.117 180.261C129.855 180.767 129.483 181.162 129 181.446C128.52 181.727 127.949 181.868 127.287 181.868ZM127.296 180.462C127.597 180.462 127.848 180.376 128.05 180.206C128.252 180.033 128.404 179.797 128.506 179.498C128.611 179.2 128.664 178.861 128.664 178.48C128.664 178.099 128.611 177.76 128.506 177.462C128.404 177.163 128.252 176.927 128.05 176.754C127.848 176.581 127.597 176.494 127.296 176.494C126.992 176.494 126.736 176.581 126.529 176.754C126.324 176.927 126.169 177.163 126.064 177.462C125.962 177.76 125.911 178.099 125.911 178.48C125.911 178.861 125.962 179.2 126.064 179.498C126.169 179.797 126.324 180.033 126.529 180.206C126.736 180.376 126.992 180.462 127.296 180.462ZM133.505 177.956V181.74H131.689V175.194H133.419V176.349H133.496C133.641 175.969 133.884 175.668 134.225 175.446C134.566 175.221 134.979 175.109 135.465 175.109C135.919 175.109 136.316 175.209 136.654 175.408C136.992 175.606 137.255 175.891 137.442 176.26C137.63 176.626 137.723 177.064 137.723 177.572V181.74H135.908V177.896C135.911 177.496 135.809 177.183 135.601 176.959C135.394 176.731 135.108 176.618 134.745 176.618C134.5 176.618 134.284 176.67 134.097 176.775C133.912 176.881 133.767 177.034 133.662 177.236C133.56 177.435 133.507 177.675 133.505 177.956ZM139.154 175.194H140.969V182.064C140.969 182.569 140.87 182.979 140.671 183.291C140.472 183.604 140.187 183.832 139.815 183.977C139.445 184.122 139.004 184.194 138.489 184.194C138.427 184.194 138.367 184.193 138.31 184.19C138.251 184.19 138.188 184.189 138.123 184.186V182.767C138.171 182.77 138.214 182.771 138.251 182.771C138.285 182.774 138.322 182.775 138.362 182.775C138.654 182.775 138.859 182.713 138.975 182.588C139.094 182.466 139.154 182.281 139.154 182.034V175.194ZM140.058 174.351C139.79 174.351 139.56 174.261 139.367 174.082C139.174 173.9 139.077 173.683 139.077 173.43C139.077 173.18 139.174 172.966 139.367 172.787C139.56 172.605 139.79 172.514 140.058 172.514C140.33 172.514 140.562 172.605 140.752 172.787C140.945 172.966 141.042 173.18 141.042 173.43C141.042 173.683 140.945 173.9 140.752 174.082C140.562 174.261 140.33 174.351 140.058 174.351ZM145.381 181.868C144.719 181.868 144.147 181.727 143.664 181.446C143.184 181.162 142.813 180.767 142.551 180.261C142.29 179.753 142.159 179.163 142.159 178.493C142.159 177.817 142.29 177.226 142.551 176.72C142.813 176.212 143.184 175.817 143.664 175.535C144.147 175.251 144.719 175.109 145.381 175.109C146.043 175.109 146.614 175.251 147.094 175.535C147.577 175.817 147.949 176.212 148.211 176.72C148.472 177.226 148.603 177.817 148.603 178.493C148.603 179.163 148.472 179.753 148.211 180.261C147.949 180.767 147.577 181.162 147.094 181.446C146.614 181.727 146.043 181.868 145.381 181.868ZM145.39 180.462C145.691 180.462 145.942 180.376 146.144 180.206C146.346 180.033 146.498 179.797 146.6 179.498C146.705 179.2 146.757 178.861 146.757 178.48C146.757 178.099 146.705 177.76 146.6 177.462C146.498 177.163 146.346 176.927 146.144 176.754C145.942 176.581 145.691 176.494 145.39 176.494C145.086 176.494 144.83 176.581 144.623 176.754C144.418 176.927 144.263 177.163 144.158 177.462C144.056 177.76 144.005 178.099 144.005 178.48C144.005 178.861 144.056 179.2 144.158 179.498C144.263 179.797 144.418 180.033 144.623 180.206C144.83 180.376 145.086 180.462 145.39 180.462ZM151.598 177.956V181.74H149.783V173.013H151.547V176.349H151.624C151.772 175.963 152.01 175.66 152.34 175.442C152.669 175.22 153.083 175.109 153.58 175.109C154.034 175.109 154.431 175.209 154.769 175.408C155.11 175.604 155.374 175.886 155.561 176.256C155.752 176.622 155.846 177.061 155.843 177.572V181.74H154.027V177.896C154.03 177.493 153.928 177.179 153.721 176.954C153.516 176.73 153.229 176.618 152.86 176.618C152.613 176.618 152.394 176.67 152.203 176.775C152.016 176.881 151.868 177.034 151.76 177.236C151.655 177.435 151.601 177.675 151.598 177.956ZM159.087 177.956V181.74H157.271V175.194H159.001V176.349H159.078C159.223 175.969 159.466 175.668 159.807 175.446C160.148 175.221 160.561 175.109 161.047 175.109C161.501 175.109 161.898 175.209 162.236 175.408C162.574 175.606 162.837 175.891 163.024 176.26C163.212 176.626 163.305 177.064 163.305 177.572V181.74H161.49V177.896C161.493 177.496 161.391 177.183 161.183 176.959C160.976 176.731 160.69 176.618 160.327 176.618C160.082 176.618 159.866 176.67 159.679 176.775C159.494 176.881 159.349 177.034 159.244 177.236C159.142 177.435 159.089 177.675 159.087 177.956ZM170.182 177.061L168.52 177.163C168.492 177.021 168.431 176.893 168.337 176.78C168.243 176.663 168.12 176.571 167.966 176.503C167.816 176.432 167.635 176.396 167.425 176.396C167.144 176.396 166.907 176.456 166.713 176.575C166.52 176.692 166.424 176.848 166.424 177.044C166.424 177.2 166.486 177.332 166.611 177.44C166.736 177.548 166.951 177.635 167.255 177.7L168.439 177.939C169.076 178.069 169.55 178.28 169.863 178.569C170.175 178.859 170.331 179.24 170.331 179.712C170.331 180.141 170.205 180.517 169.952 180.841C169.702 181.165 169.358 181.418 168.921 181.599C168.486 181.778 167.985 181.868 167.417 181.868C166.55 181.868 165.86 181.687 165.346 181.327C164.834 180.963 164.534 180.469 164.446 179.844L166.232 179.75C166.286 180.014 166.417 180.216 166.624 180.355C166.831 180.491 167.097 180.56 167.421 180.56C167.739 180.56 167.995 180.498 168.188 180.376C168.384 180.251 168.483 180.091 168.486 179.895C168.483 179.73 168.414 179.595 168.277 179.49C168.141 179.382 167.931 179.3 167.647 179.243L166.513 179.017C165.874 178.889 165.398 178.668 165.086 178.352C164.776 178.037 164.621 177.635 164.621 177.146C164.621 176.726 164.735 176.364 164.962 176.06C165.192 175.756 165.515 175.521 165.929 175.356C166.347 175.192 166.836 175.109 167.395 175.109C168.222 175.109 168.873 175.284 169.347 175.633C169.824 175.983 170.103 176.459 170.182 177.061ZM174.432 181.868C173.77 181.868 173.197 181.727 172.714 181.446C172.234 181.162 171.864 180.767 171.602 180.261C171.341 179.753 171.21 179.163 171.21 178.493C171.21 177.817 171.341 177.226 171.602 176.72C171.864 176.212 172.234 175.817 172.714 175.535C173.197 175.251 173.77 175.109 174.432 175.109C175.094 175.109 175.665 175.251 176.145 175.535C176.628 175.817 177 176.212 177.261 176.72C177.523 177.226 177.653 177.817 177.653 178.493C177.653 179.163 177.523 179.753 177.261 180.261C177 180.767 176.628 181.162 176.145 181.446C175.665 181.727 175.094 181.868 174.432 181.868ZM174.44 180.462C174.741 180.462 174.993 180.376 175.195 180.206C175.396 180.033 175.548 179.797 175.651 179.498C175.756 179.2 175.808 178.861 175.808 178.48C175.808 178.099 175.756 177.76 175.651 177.462C175.548 177.163 175.396 176.927 175.195 176.754C174.993 176.581 174.741 176.494 174.44 176.494C174.136 176.494 173.881 176.581 173.673 176.754C173.469 176.927 173.314 177.163 173.209 177.462C173.107 177.76 173.055 178.099 173.055 178.48C173.055 178.861 173.107 179.2 173.209 179.498C173.314 179.797 173.469 180.033 173.673 180.206C173.881 180.376 174.136 180.462 174.44 180.462ZM180.649 177.956V181.74H178.834V175.194H180.564V176.349H180.641C180.786 175.969 181.028 175.668 181.369 175.446C181.71 175.221 182.124 175.109 182.609 175.109C183.064 175.109 183.46 175.209 183.798 175.408C184.136 175.606 184.399 175.891 184.587 176.26C184.774 176.626 184.868 177.064 184.868 177.572V181.74H183.053V177.896C183.055 177.496 182.953 177.183 182.746 176.959C182.538 176.731 182.253 176.618 181.889 176.618C181.645 176.618 181.429 176.67 181.241 176.775C181.057 176.881 180.912 177.034 180.807 177.236C180.705 177.435 180.652 177.675 180.649 177.956Z" fill="white"/>
<path d="M61 170.58H73V158.58H61V170.58Z" fill="black"/>
<path d="M222.5 166.74L224.633 173.65H231.535L225.951 177.92L228.084 184.83L222.5 180.56L216.916 184.83L219.049 177.92L213.465 173.65H220.367L222.5 166.74Z" fill="#0FFFFF"/>
<defs>
<filter id="filter0_d_6_20" x="77" y="33.7399" width="124.5" height="132.5" filterUnits="userSpaceOnUse" color-interpolation-filters="sRGB">
<feFlood flood-opacity="0" result="BackgroundImageFix"/>
<feColorMatrix in="SourceAlpha" type="matrix" values="0 0 0 0 0 0 0 0 0 0 0 0 0 0 0 0 0 0 127 0" result="hardAlpha"/>
<feOffset dy="4"/>
<feGaussianBlur stdDeviation="2"/>
<feComposite in2="hardAlpha" operator="out"/>
<feColorMatrix type="matrix" values="0 0 0 0 0 0 0 0 0 0 0 0 0 0 0 0 0 0 0.25 0"/>
<feBlend mode="normal" in2="BackgroundImageFix" result="effect1_dropShadow_6_20"/>
<feBlend mode="normal" in="SourceGraphic" in2="effect1_dropShadow_6_20" result="shape"/>
</filter>
</defs>
</svg>
