<svg width="153" height="142" viewBox="0 0 153 142" fill="none" xmlns="http://www.w3.org/2000/svg">
<rect width="153" height="142" fill="#191515"/>
<rect y="27" width="76" height="80" fill="#FF9F1C"/>
<rect x="76" y="38" width="77" height="58" fill="#F3C97A"/>
<path d="M51.5623 69.3101L72.7138 93.3229L96.7266 72.1714L75.5751 48.1586L51.5623 69.3101Z" fill="black"/>
<path d="M20.5227 89V42.4545H39.75C43.2348 42.4545 46.2424 43.0833 48.7727 44.3409C51.3182 45.5833 53.2803 47.3712 54.6591 49.7045C56.0379 52.0227 56.7273 54.7727 56.7273 57.9545C56.7273 61.1818 56.0227 63.9242 54.6136 66.1818C53.2045 68.4242 51.2045 70.1364 48.6136 71.3182C46.0227 72.4848 42.9545 73.0682 39.4091 73.0682H27.25V64.2045H37.3182C39.0152 64.2045 40.4318 63.9848 41.5682 63.5455C42.7197 63.0909 43.5909 62.4091 44.1818 61.5C44.7727 60.5758 45.0682 59.3939 45.0682 57.9545C45.0682 56.5151 44.7727 55.3258 44.1818 54.3864C43.5909 53.4318 42.7197 52.7197 41.5682 52.25C40.4167 51.7652 39 51.5227 37.3182 51.5227H31.7727V89H20.5227ZM46.7273 67.7273L58.3182 89H46.0455L34.6818 67.7273H46.7273Z" fill="white"/>
<path d="M135.591 66.5455C135.591 70.3864 134.852 73.642 133.375 76.3125C131.898 78.983 129.898 81.0114 127.375 82.3977C124.864 83.7841 122.045 84.4773 118.92 84.4773C115.784 84.4773 112.96 83.7784 110.449 82.3807C107.938 80.983 105.943 78.9545 104.466 76.2955C103 73.625 102.267 70.375 102.267 66.5455C102.267 62.7045 103 59.4489 104.466 56.7784C105.943 54.108 107.938 52.0795 110.449 50.6932C112.96 49.3068 115.784 48.6136 118.92 48.6136C122.045 48.6136 124.864 49.3068 127.375 50.6932C129.898 52.0795 131.898 54.108 133.375 56.7784C134.852 59.4489 135.591 62.7045 135.591 66.5455ZM126.966 66.5455C126.966 64.2727 126.642 62.3523 125.994 60.7841C125.358 59.2159 124.438 58.0284 123.233 57.2216C122.04 56.4148 120.602 56.0114 118.92 56.0114C117.25 56.0114 115.813 56.4148 114.608 57.2216C113.403 58.0284 112.477 59.2159 111.83 60.7841C111.193 62.3523 110.875 64.2727 110.875 66.5455C110.875 68.8182 111.193 70.7386 111.83 72.3068C112.477 73.875 113.403 75.0625 114.608 75.8693C115.813 76.6761 117.25 77.0795 118.92 77.0795C120.602 77.0795 122.04 76.6761 123.233 75.8693C124.438 75.0625 125.358 73.875 125.994 72.3068C126.642 70.7386 126.966 68.8182 126.966 66.5455Z" fill="black"/>
</svg>
